<svg id="visual" viewBox="0 0 900 600" width="900" height="600" xmlns="http://www.w3.org/2000/svg" xmlns:xlink="http://www.w3.org/1999/xlink" version="1.1"><rect x="0" y="0" width="900" height="600" fill="#010a11"></rect><g transform="translate(441.70277377059597 368.44644003004885)"><path d="M207.1 -258.9C253.6 -207.9 266.1 -128.5 275.6 -52C285.1 24.6 291.5 98.3 256.7 138.4C221.9 178.6 145.8 185.1 88.2 178.5C30.5 171.8 -8.8 152 -61.6 143.8C-114.3 135.6 -180.6 139.1 -221.6 108.4C-262.7 77.7 -278.6 12.9 -256.6 -33.7C-234.7 -80.3 -174.9 -108.7 -125.8 -159.2C-76.7 -209.7 -38.4 -282.4 21 -307.4C80.3 -332.4 160.7 -309.8 207.1 -258.9" fill="#BB004B"></path></g></svg>