<svg id="visual" viewBox="0 0 900 600" width="900" height="600" xmlns="http://www.w3.org/2000/svg" xmlns:xlink="http://www.w3.org/1999/xlink" version="1.1"><rect x="0" y="0" width="900" height="600" fill="#1d7dc7"></rect><g transform="translate(437.3385319973043 287.33960443356057)"><path d="M114.5 -167.2C159.9 -149.1 215.9 -136.6 238.4 -104C260.8 -71.4 249.7 -18.5 231.1 25.3C212.4 69.1 186.3 104 155.4 128.3C124.4 152.5 88.6 166.2 48.9 187.5C9.1 208.9 -34.6 237.8 -81.2 240.6C-127.8 243.3 -177.3 219.9 -195.4 179.9C-213.5 139.9 -200.3 83.4 -205.3 31.2C-210.2 -21.1 -233.4 -69.1 -222.8 -105.7C-212.3 -142.3 -168 -167.5 -125.3 -186.8C-82.5 -206.1 -41.3 -219.5 -3.3 -214.4C34.6 -209.2 69.2 -185.3 114.5 -167.2" fill="#45FFCA"></path></g></svg>