<svg id="visual" viewBox="0 0 900 600" width="900" height="600" xmlns="http://www.w3.org/2000/svg" xmlns:xlink="http://www.w3.org/1999/xlink" version="1.1"><rect x="0" y="0" width="900" height="600" fill="#1d7dc7"></rect><g transform="translate(458.45799329438455 303.83126605000274)"><path d="M163.9 -201.6C207 -159.2 232.8 -102.4 242.5 -43.3C252.3 15.8 246.1 77.1 219.4 129.7C192.6 182.2 145.4 226 89.1 247.8C32.7 269.7 -32.7 269.7 -87.8 247.1C-142.8 224.5 -187.4 179.2 -219.3 125.8C-251.2 72.3 -270.4 10.6 -261.7 -47.5C-253 -105.5 -216.5 -160 -168.2 -201.5C-120 -243 -60 -271.5 0.2 -271.8C60.4 -272 120.8 -244 163.9 -201.6" fill="#45FFCA"></path></g></svg>