<svg id="visual" viewBox="0 0 900 600" width="900" height="600" xmlns="http://www.w3.org/2000/svg" xmlns:xlink="http://www.w3.org/1999/xlink" version="1.1"><rect x="0" y="0" width="900" height="600" fill="#1d7dc7"></rect><g transform="translate(489.20388777811456 316.7264437711313)"><path d="M147.2 -200C172.4 -154.4 161.5 -90.5 162 -36.2C162.5 18.1 174.4 62.8 157.8 90.7C141.2 118.7 96.3 129.8 48.5 157.8C0.8 185.8 -49.7 230.5 -95.8 228.7C-141.9 226.9 -183.5 178.4 -212 124.6C-240.4 70.7 -255.6 11.5 -236.5 -32.1C-217.4 -75.8 -164 -103.8 -118.8 -145.8C-73.7 -187.8 -36.9 -243.9 12.1 -258.3C61.1 -272.8 122.1 -245.5 147.2 -200" fill="#010a11"></path></g></svg>