<svg id="visual" viewBox="0 0 900 600" width="900" height="600" xmlns="http://www.w3.org/2000/svg" xmlns:xlink="http://www.w3.org/1999/xlink" version="1.1"><rect x="0" y="0" width="900" height="600" fill="#1d7dc7"></rect><g transform="translate(435.1492959896718 278.6283910305646)"><path d="M132.9 -135.1C181.8 -117.3 237.6 -84.5 258.2 -35.5C278.8 13.5 264.1 78.8 229.7 127.2C195.2 175.6 141.1 207.1 84.5 224.2C28 241.2 -30.8 243.7 -66.9 216.4C-103 189.1 -116.5 132.1 -147 83C-177.5 34 -225.2 -7.1 -235.7 -57.9C-246.1 -108.7 -219.5 -169.2 -174 -187.6C-128.6 -205.9 -64.3 -181.9 -11.1 -168.7C42 -155.4 84 -152.8 132.9 -135.1" fill="#010a11"></path></g></svg>