<svg id="visual" viewBox="0 0 900 600" width="900" height="600" xmlns="http://www.w3.org/2000/svg" xmlns:xlink="http://www.w3.org/1999/xlink" version="1.1"><rect x="0" y="0" width="900" height="600" fill="#010a11"></rect><g transform="translate(446.91430079299573 310.0262364026112)"><path d="M163.8 -199.4C199.1 -165.7 205.4 -101.5 214.3 -39.5C223.1 22.4 234.5 82.2 209.1 115.5C183.7 148.9 121.4 155.7 64.7 175.3C8 194.8 -43.2 227.1 -74.7 212.5C-106.2 197.9 -118.1 136.5 -142.9 86.1C-167.7 35.7 -205.5 -3.6 -215.6 -54C-225.8 -104.4 -208.4 -166 -167.8 -198.8C-127.3 -231.7 -63.6 -235.8 0.3 -236.2C64.3 -236.6 128.6 -233.2 163.8 -199.4" fill="#BB004B"></path></g></svg>