<svg id="visual" viewBox="0 0 960 300" width="960" height="300" xmlns="http://www.w3.org/2000/svg" xmlns:xlink="http://www.w3.org/1999/xlink" version="1.1"><rect x="0" y="0" width="960" height="300" fill="#010a11"></rect><path d="M0 111L17.8 117.7C35.7 124.3 71.3 137.7 106.8 139C142.3 140.3 177.7 129.7 213.2 123.3C248.7 117 284.3 115 320 113C355.7 111 391.3 109 426.8 113.7C462.3 118.3 497.7 129.7 533.2 127.3C568.7 125 604.3 109 640 111.2C675.7 113.3 711.3 133.7 746.8 132.2C782.3 130.7 817.7 107.3 853.2 103C888.7 98.7 924.3 113.3 942.2 120.7L960 128L960 301L942.2 301C924.3 301 888.7 301 853.2 301C817.7 301 782.3 301 746.8 301C711.3 301 675.7 301 640 301C604.3 301 568.7 301 533.2 301C497.7 301 462.3 301 426.8 301C391.3 301 355.7 301 320 301C284.3 301 248.7 301 213.2 301C177.7 301 142.3 301 106.8 301C71.3 301 35.7 301 17.8 301L0 301Z" fill="#c62368"></path><path d="M0 116L17.8 118.2C35.7 120.3 71.3 124.7 106.8 133.5C142.3 142.3 177.7 155.7 213.2 154.8C248.7 154 284.3 139 320 138.7C355.7 138.3 391.3 152.7 426.8 155.2C462.3 157.7 497.7 148.3 533.2 141.2C568.7 134 604.3 129 640 127.2C675.7 125.3 711.3 126.7 746.8 135.8C782.3 145 817.7 162 853.2 165.7C888.7 169.3 924.3 159.7 942.2 154.8L960 150L960 301L942.2 301C924.3 301 888.7 301 853.2 301C817.7 301 782.3 301 746.8 301C711.3 301 675.7 301 640 301C604.3 301 568.7 301 533.2 301C497.7 301 462.3 301 426.8 301C391.3 301 355.7 301 320 301C284.3 301 248.7 301 213.2 301C177.7 301 142.3 301 106.8 301C71.3 301 35.7 301 17.8 301L0 301Z" fill="#d23563"></path><path d="M0 187L17.8 191.2C35.7 195.3 71.3 203.7 106.8 208.5C142.3 213.3 177.7 214.7 213.2 206.8C248.7 199 284.3 182 320 173.5C355.7 165 391.3 165 426.8 166.8C462.3 168.7 497.7 172.3 533.2 174C568.7 175.7 604.3 175.3 640 171.7C675.7 168 711.3 161 746.8 166C782.3 171 817.7 188 853.2 197.8C888.7 207.7 924.3 210.3 942.2 211.7L960 213L960 301L942.2 301C924.3 301 888.7 301 853.2 301C817.7 301 782.3 301 746.8 301C711.3 301 675.7 301 640 301C604.3 301 568.7 301 533.2 301C497.7 301 462.3 301 426.8 301C391.3 301 355.7 301 320 301C284.3 301 248.7 301 213.2 301C177.7 301 142.3 301 106.8 301C71.3 301 35.7 301 17.8 301L0 301Z" fill="#dc465f"></path><path d="M0 224L17.8 226C35.7 228 71.3 232 106.8 233.8C142.3 235.7 177.7 235.3 213.2 231.5C248.7 227.7 284.3 220.3 320 217.8C355.7 215.3 391.3 217.7 426.8 215C462.3 212.3 497.7 204.7 533.2 201.8C568.7 199 604.3 201 640 204C675.7 207 711.3 211 746.8 214C782.3 217 817.7 219 853.2 219.7C888.7 220.3 924.3 219.7 942.2 219.3L960 219L960 301L942.2 301C924.3 301 888.7 301 853.2 301C817.7 301 782.3 301 746.8 301C711.3 301 675.7 301 640 301C604.3 301 568.7 301 533.2 301C497.7 301 462.3 301 426.8 301C391.3 301 355.7 301 320 301C284.3 301 248.7 301 213.2 301C177.7 301 142.3 301 106.8 301C71.3 301 35.7 301 17.8 301L0 301Z" fill="#e4575b"></path><path d="M0 273L17.8 268.7C35.7 264.3 71.3 255.7 106.8 254.8C142.3 254 177.7 261 213.2 265.3C248.7 269.7 284.3 271.3 320 269.2C355.7 267 391.3 261 426.8 257C462.3 253 497.7 251 533.2 253.7C568.7 256.3 604.3 263.7 640 267.3C675.7 271 711.3 271 746.8 271.7C782.3 272.3 817.7 273.7 853.2 274.5C888.7 275.3 924.3 275.7 942.2 275.8L960 276L960 301L942.2 301C924.3 301 888.7 301 853.2 301C817.7 301 782.3 301 746.8 301C711.3 301 675.7 301 640 301C604.3 301 568.7 301 533.2 301C497.7 301 462.3 301 426.8 301C391.3 301 355.7 301 320 301C284.3 301 248.7 301 213.2 301C177.7 301 142.3 301 106.8 301C71.3 301 35.7 301 17.8 301L0 301Z" fill="#eb6859"></path></svg>