<svg id="visual" viewBox="0 0 960 300" width="960" height="300" xmlns="http://www.w3.org/2000/svg" xmlns:xlink="http://www.w3.org/1999/xlink" version="1.1"><rect x="0" y="0" width="960" height="300" fill="#010a11"></rect><path d="M0 128L17.8 115.3C35.7 102.7 71.3 77.3 106.8 69.7C142.3 62 177.7 72 213.2 85.8C248.7 99.7 284.3 117.3 320 120C355.7 122.7 391.3 110.3 426.8 101.7C462.3 93 497.7 88 533.2 80C568.7 72 604.3 61 640 68C675.7 75 711.3 100 746.8 103C782.3 106 817.7 87 853.2 88.8C888.7 90.7 924.3 113.3 942.2 124.7L960 136L960 301L942.2 301C924.3 301 888.7 301 853.2 301C817.7 301 782.3 301 746.8 301C711.3 301 675.7 301 640 301C604.3 301 568.7 301 533.2 301C497.7 301 462.3 301 426.8 301C391.3 301 355.7 301 320 301C284.3 301 248.7 301 213.2 301C177.7 301 142.3 301 106.8 301C71.3 301 35.7 301 17.8 301L0 301Z" fill="#010a11"></path><path d="M0 146L17.8 141.3C35.7 136.7 71.3 127.3 106.8 129.8C142.3 132.3 177.7 146.7 213.2 150.5C248.7 154.3 284.3 147.7 320 138.3C355.7 129 391.3 117 426.8 109.3C462.3 101.7 497.7 98.3 533.2 95.5C568.7 92.7 604.3 90.3 640 97.3C675.7 104.3 711.3 120.7 746.8 127C782.3 133.3 817.7 129.7 853.2 133.5C888.7 137.3 924.3 148.7 942.2 154.3L960 160L960 301L942.2 301C924.3 301 888.7 301 853.2 301C817.7 301 782.3 301 746.8 301C711.3 301 675.7 301 640 301C604.3 301 568.7 301 533.2 301C497.7 301 462.3 301 426.8 301C391.3 301 355.7 301 320 301C284.3 301 248.7 301 213.2 301C177.7 301 142.3 301 106.8 301C71.3 301 35.7 301 17.8 301L0 301Z" fill="#0b1b2d"></path><path d="M0 185L17.8 178.2C35.7 171.3 71.3 157.7 106.8 147.5C142.3 137.3 177.7 130.7 213.2 128.3C248.7 126 284.3 128 320 128.2C355.7 128.3 391.3 126.7 426.8 124C462.3 121.3 497.7 117.7 533.2 116.2C568.7 114.7 604.3 115.3 640 120.2C675.7 125 711.3 134 746.8 138C782.3 142 817.7 141 853.2 141.7C888.7 142.3 924.3 144.7 942.2 145.8L960 147L960 301L942.2 301C924.3 301 888.7 301 853.2 301C817.7 301 782.3 301 746.8 301C711.3 301 675.7 301 640 301C604.3 301 568.7 301 533.2 301C497.7 301 462.3 301 426.8 301C391.3 301 355.7 301 320 301C284.3 301 248.7 301 213.2 301C177.7 301 142.3 301 106.8 301C71.3 301 35.7 301 17.8 301L0 301Z" fill="#1e2749"></path><path d="M0 187L17.8 180.3C35.7 173.7 71.3 160.3 106.8 161.8C142.3 163.3 177.7 179.7 213.2 186.7C248.7 193.7 284.3 191.3 320 186.8C355.7 182.3 391.3 175.7 426.8 170.2C462.3 164.7 497.7 160.3 533.2 167C568.7 173.7 604.3 191.3 640 189.7C675.7 188 711.3 167 746.8 159.5C782.3 152 817.7 158 853.2 159C888.7 160 924.3 156 942.2 154L960 152L960 301L942.2 301C924.3 301 888.7 301 853.2 301C817.7 301 782.3 301 746.8 301C711.3 301 675.7 301 640 301C604.3 301 568.7 301 533.2 301C497.7 301 462.3 301 426.8 301C391.3 301 355.7 301 320 301C284.3 301 248.7 301 213.2 301C177.7 301 142.3 301 106.8 301C71.3 301 35.7 301 17.8 301L0 301Z" fill="#412e61"></path><path d="M0 183L17.8 190.2C35.7 197.3 71.3 211.7 106.8 211.5C142.3 211.3 177.7 196.7 213.2 189.7C248.7 182.7 284.3 183.3 320 185.5C355.7 187.7 391.3 191.3 426.8 195.5C462.3 199.7 497.7 204.3 533.2 209.7C568.7 215 604.3 221 640 218.8C675.7 216.7 711.3 206.3 746.8 205.2C782.3 204 817.7 212 853.2 210C888.7 208 924.3 196 942.2 190L960 184L960 301L942.2 301C924.3 301 888.7 301 853.2 301C817.7 301 782.3 301 746.8 301C711.3 301 675.7 301 640 301C604.3 301 568.7 301 533.2 301C497.7 301 462.3 301 426.8 301C391.3 301 355.7 301 320 301C284.3 301 248.7 301 213.2 301C177.7 301 142.3 301 106.8 301C71.3 301 35.7 301 17.8 301L0 301Z" fill="#6d2f70"></path><path d="M0 254L17.8 248.5C35.7 243 71.3 232 106.8 225.5C142.3 219 177.7 217 213.2 222.3C248.7 227.7 284.3 240.3 320 246.3C355.7 252.3 391.3 251.7 426.8 251.7C462.3 251.7 497.7 252.3 533.2 253C568.7 253.7 604.3 254.3 640 250.2C675.7 246 711.3 237 746.8 232.7C782.3 228.3 817.7 228.7 853.2 231.8C888.7 235 924.3 241 942.2 244L960 247L960 301L942.2 301C924.3 301 888.7 301 853.2 301C817.7 301 782.3 301 746.8 301C711.3 301 675.7 301 640 301C604.3 301 568.7 301 533.2 301C497.7 301 462.3 301 426.8 301C391.3 301 355.7 301 320 301C284.3 301 248.7 301 213.2 301C177.7 301 142.3 301 106.8 301C71.3 301 35.7 301 17.8 301L0 301Z" fill="#9b2a72"></path><path d="M0 269L17.8 266.3C35.7 263.7 71.3 258.3 106.8 259.8C142.3 261.3 177.7 269.7 213.2 271C248.7 272.3 284.3 266.7 320 264.8C355.7 263 391.3 265 426.8 263.5C462.3 262 497.7 257 533.2 257.5C568.7 258 604.3 264 640 263.3C675.7 262.7 711.3 255.3 746.8 250.8C782.3 246.3 817.7 244.7 853.2 247C888.7 249.3 924.3 255.7 942.2 258.8L960 262L960 301L942.2 301C924.3 301 888.7 301 853.2 301C817.7 301 782.3 301 746.8 301C711.3 301 675.7 301 640 301C604.3 301 568.7 301 533.2 301C497.7 301 462.3 301 426.8 301C391.3 301 355.7 301 320 301C284.3 301 248.7 301 213.2 301C177.7 301 142.3 301 106.8 301C71.3 301 35.7 301 17.8 301L0 301Z" fill="#c62368"></path></svg>