<svg id="visual" viewBox="0 0 960 300" width="960" height="300" xmlns="http://www.w3.org/2000/svg" xmlns:xlink="http://www.w3.org/1999/xlink" version="1.1"><rect x="0" y="0" width="960" height="300" fill="#510a32"></rect><path d="M0 118L17.8 113.7C35.7 109.3 71.3 100.7 106.8 104.5C142.3 108.3 177.7 124.7 213.2 121.5C248.7 118.3 284.3 95.7 320 95C355.7 94.3 391.3 115.7 426.8 116C462.3 116.3 497.7 95.7 533.2 95.8C568.7 96 604.3 117 640 122.2C675.7 127.3 711.3 116.7 746.8 113.2C782.3 109.7 817.7 113.3 853.2 121.3C888.7 129.3 924.3 141.7 942.2 147.8L960 154L960 301L942.2 301C924.3 301 888.7 301 853.2 301C817.7 301 782.3 301 746.8 301C711.3 301 675.7 301 640 301C604.3 301 568.7 301 533.2 301C497.7 301 462.3 301 426.8 301C391.3 301 355.7 301 320 301C284.3 301 248.7 301 213.2 301C177.7 301 142.3 301 106.8 301C71.3 301 35.7 301 17.8 301L0 301Z" fill="#c62368"></path><path d="M0 154L17.8 148.7C35.7 143.3 71.3 132.7 106.8 132.8C142.3 133 177.7 144 213.2 144C248.7 144 284.3 133 320 126.8C355.7 120.7 391.3 119.3 426.8 127.2C462.3 135 497.7 152 533.2 153C568.7 154 604.3 139 640 135.7C675.7 132.3 711.3 140.7 746.8 142.2C782.3 143.7 817.7 138.3 853.2 137C888.7 135.7 924.3 138.3 942.2 139.7L960 141L960 301L942.2 301C924.3 301 888.7 301 853.2 301C817.7 301 782.3 301 746.8 301C711.3 301 675.7 301 640 301C604.3 301 568.7 301 533.2 301C497.7 301 462.3 301 426.8 301C391.3 301 355.7 301 320 301C284.3 301 248.7 301 213.2 301C177.7 301 142.3 301 106.8 301C71.3 301 35.7 301 17.8 301L0 301Z" fill="#9b2a72"></path><path d="M0 148L17.8 152C35.7 156 71.3 164 106.8 171.5C142.3 179 177.7 186 213.2 187.7C248.7 189.3 284.3 185.7 320 178.3C355.7 171 391.3 160 426.8 152C462.3 144 497.7 139 533.2 145.7C568.7 152.3 604.3 170.7 640 173.3C675.7 176 711.3 163 746.8 159.3C782.3 155.7 817.7 161.3 853.2 163.8C888.7 166.3 924.3 165.7 942.2 165.3L960 165L960 301L942.2 301C924.3 301 888.7 301 853.2 301C817.7 301 782.3 301 746.8 301C711.3 301 675.7 301 640 301C604.3 301 568.7 301 533.2 301C497.7 301 462.3 301 426.8 301C391.3 301 355.7 301 320 301C284.3 301 248.7 301 213.2 301C177.7 301 142.3 301 106.8 301C71.3 301 35.7 301 17.8 301L0 301Z" fill="#6d2f70"></path><path d="M0 164L17.8 172.8C35.7 181.7 71.3 199.3 106.8 199C142.3 198.7 177.7 180.3 213.2 179.5C248.7 178.7 284.3 195.3 320 200.8C355.7 206.3 391.3 200.7 426.8 199.3C462.3 198 497.7 201 533.2 202.7C568.7 204.3 604.3 204.7 640 203C675.7 201.3 711.3 197.7 746.8 196.5C782.3 195.3 817.7 196.7 853.2 197.7C888.7 198.7 924.3 199.3 942.2 199.7L960 200L960 301L942.2 301C924.3 301 888.7 301 853.2 301C817.7 301 782.3 301 746.8 301C711.3 301 675.7 301 640 301C604.3 301 568.7 301 533.2 301C497.7 301 462.3 301 426.8 301C391.3 301 355.7 301 320 301C284.3 301 248.7 301 213.2 301C177.7 301 142.3 301 106.8 301C71.3 301 35.7 301 17.8 301L0 301Z" fill="#412e61"></path><path d="M0 212L17.8 209.5C35.7 207 71.3 202 106.8 205C142.3 208 177.7 219 213.2 220.5C248.7 222 284.3 214 320 213.3C355.7 212.7 391.3 219.3 426.8 223.7C462.3 228 497.7 230 533.2 229.8C568.7 229.7 604.3 227.3 640 225.2C675.7 223 711.3 221 746.8 220.5C782.3 220 817.7 221 853.2 216.8C888.7 212.7 924.3 203.3 942.2 198.7L960 194L960 301L942.2 301C924.3 301 888.7 301 853.2 301C817.7 301 782.3 301 746.8 301C711.3 301 675.7 301 640 301C604.3 301 568.7 301 533.2 301C497.7 301 462.3 301 426.8 301C391.3 301 355.7 301 320 301C284.3 301 248.7 301 213.2 301C177.7 301 142.3 301 106.8 301C71.3 301 35.7 301 17.8 301L0 301Z" fill="#1e2749"></path><path d="M0 234L17.8 238.2C35.7 242.3 71.3 250.7 106.8 248.3C142.3 246 177.7 233 213.2 232.7C248.7 232.3 284.3 244.7 320 245.7C355.7 246.7 391.3 236.3 426.8 232C462.3 227.7 497.7 229.3 533.2 228.8C568.7 228.3 604.3 225.7 640 229C675.7 232.3 711.3 241.7 746.8 244.2C782.3 246.7 817.7 242.3 853.2 241.8C888.7 241.3 924.3 244.7 942.2 246.3L960 248L960 301L942.2 301C924.3 301 888.7 301 853.2 301C817.7 301 782.3 301 746.8 301C711.3 301 675.7 301 640 301C604.3 301 568.7 301 533.2 301C497.7 301 462.3 301 426.8 301C391.3 301 355.7 301 320 301C284.3 301 248.7 301 213.2 301C177.7 301 142.3 301 106.8 301C71.3 301 35.7 301 17.8 301L0 301Z" fill="#0b1b2d"></path><path d="M0 269L17.8 267.2C35.7 265.3 71.3 261.7 106.8 260.5C142.3 259.3 177.7 260.7 213.2 262.8C248.7 265 284.3 268 320 267.8C355.7 267.7 391.3 264.3 426.8 261C462.3 257.7 497.7 254.3 533.2 257.5C568.7 260.7 604.3 270.3 640 269.8C675.7 269.3 711.3 258.7 746.8 257.5C782.3 256.3 817.7 264.7 853.2 265.8C888.7 267 924.3 261 942.2 258L960 255L960 301L942.2 301C924.3 301 888.7 301 853.2 301C817.7 301 782.3 301 746.8 301C711.3 301 675.7 301 640 301C604.3 301 568.7 301 533.2 301C497.7 301 462.3 301 426.8 301C391.3 301 355.7 301 320 301C284.3 301 248.7 301 213.2 301C177.7 301 142.3 301 106.8 301C71.3 301 35.7 301 17.8 301L0 301Z" fill="#010a11"></path></svg>